<svg style="display:none;">
  <symbol id="facebook" xmlns="http://www.w3.org/2000/svg" xmlns:xlink="http://www.w3.org/1999/xlink" xml:space="preserve" viewBox="-143 145 512 512">
    <g>
      <path d="M329,145h-432c-22.1,0-40,17.9-40,40v432c0,22.1,17.9,40,40,40h432c22.1,0,40-17.9,40-40V185C369,162.9,351.1,145,329,145z
		 M339,617c0,5.5-4.5,10-10,10h-432c-5.5,0-10-4.5-10-10V185c0-5.5,4.5-10,10-10h432c5.5,0,10,4.5,10,10V617z"></path>
      <path d="M146.8,313.7c10.3,0,21.3,3.2,21.3,3.2l6.6-39.2c0,0-14-4.8-47.4-4.8c-20.5,0-32.4,7.8-41.1,19.3
		c-8.2,10.9-8.5,28.4-8.5,39.7v25.7H51.2v38.3h26.5v133h49.6v-133h39.3l2.9-38.3h-42.2v-29.9C127.3,317.4,136.5,313.7,146.8,313.7z"></path>
    </g>
  </symbol>
  <symbol id="twitter" xmlns="http://www.w3.org/2000/svg" xmlns:xlink="http://www.w3.org/1999/xlink" xml:space="preserve" viewBox="-143 145 512 512">
    <g id="SVGRepo_bgCarrier" stroke-width="0"></g>
    <g id="SVGRepo_tracerCarrier" stroke-linecap="round" stroke-linejoin="round"></g>
    <g id="SVGRepo_iconCarrier">
      <g>
        <path d="M329,145h-432c-22.1,0-40,17.9-40,40v432c0,22.1,17.9,40,40,40h432c22.1,0,40-17.9,40-40V185C369,162.9,351.1,145,329,145z M339,617c0,5.5-4.5,10-10,10h-432c-5.5,0-10-4.5-10-10V185c0-5.5,4.5-10,10-10h432c5.5,0,10,4.5,10,10V617z"></path>
        <path d="M234.3,313.1c-10.2,6-21.4,10.4-33.4,12.8c-9.6-10.2-23.3-16.6-38.4-16.6c-29,0-52.6,23.6-52.6,52.6c0,4.1,0.4,8.1,1.4,12 c-43.7-2.2-82.5-23.1-108.4-55c-4.5,7.8-7.1,16.8-7.1,26.5c0,18.2,9.3,34.3,23.4,43.8c-8.6-0.3-16.7-2.7-23.8-6.6v0.6 c0,25.5,18.1,46.8,42.2,51.6c-4.4,1.2-9.1,1.9-13.9,1.9c-3.4,0-6.7-0.3-9.9-0.9c6.7,20.9,26.1,36.1,49.1,36.5 c-18,14.1-40.7,22.5-65.3,22.5c-4.2,0-8.4-0.2-12.6-0.7c23.3,14.9,50.9,23.6,80.6,23.6c96.8,0,149.7-80.2,149.7-149.7 c0-2.3,0-4.6-0.1-6.8c10.3-7.5,19.2-16.7,26.2-27.3c-9.4,4.2-19.6,7-30.2,8.3C222.1,335.7,230.4,325.4,234.3,313.1z"></path>
      </g>
    </g>
  </symbol>
  <symbol id="instagram" xmlns="http://www.w3.org/2000/svg" xmlns:xlink="http://www.w3.org/1999/xlink" xml:space="preserve" viewBox="-143 145 512 512">
    <g id="SVGRepo_bgCarrier" stroke-width="0"></g>
    <g id="SVGRepo_tracerCarrier" stroke-linecap="round" stroke-linejoin="round"></g>
    <g id="SVGRepo_iconCarrier">
      <g>
        <path d="M329,145h-432c-22.1,0-40,17.9-40,40v432c0,22.1,17.9,40,40,40h432c22.1,0,40-17.9,40-40V185C369,162.9,351.1,145,329,145z M339,617c0,5.5-4.5,10-10,10h-432c-5.5,0-10-4.5-10-10V185c0-5.5,4.5-10,10-10h432c5.5,0,10,4.5,10,10V617z"></path>
        <path d="M191.6,273h-157c-27.3,0-49.5,22.2-49.5,49.5v52.3v104.8c0,27.3,22.2,49.5,49.5,49.5h157c27.3,0,49.5-22.2,49.5-49.5V374.7 v-52.3C241,295.2,218.8,273,191.6,273z M205.8,302.5h5.7v5.6v37.8l-43.3,0.1l-0.1-43.4L205.8,302.5z M76.5,374.7 c8.2-11.3,21.5-18.8,36.5-18.8s28.3,7.4,36.5,18.8c5.4,7.4,8.5,16.5,8.5,26.3c0,24.8-20.2,45.1-45.1,45.1C88,446.1,68,425.8,68,401 C68,391.2,71.2,382.1,76.5,374.7z M216.1,479.5c0,13.5-11,24.5-24.5,24.5h-157c-13.5,0-24.5-11-24.5-24.5V374.7h38.2 c-3.3,8.1-5.2,17-5.2,26.3c0,38.6,31.4,70,70,70c38.6,0,70-31.4,70-70c0-9.3-1.9-18.2-5.2-26.3h38.2V479.5z"></path>
      </g>
    </g>
  </symbol>
  <symbol id="rsschool" xmlns="http://www.w3.org/2000/svg" xmlns:xlink="http://www.w3.org/1999/xlink" viewBox="0 0 552.8 205.3">
    <defs></defs>
    <path d="M285.4 68l26.3-1.7c.6 4.3 1.7 7.5 3.5 9.8 2.9 3.6 6.9 5.4 12.2 5.4 3.9 0 7-.9 9.1-2.8 2-1.5 3.2-3.9 3.2-6.4 0-2.4-1.1-4.7-3-6.2-2-1.8-6.7-3.6-14.1-5.2-12.1-2.7-20.8-6.3-25.9-10.9-5.1-4.3-8-10.6-7.8-17.3 0-4.6 1.4-9.2 4-13 3-4.3 7.1-7.7 12-9.6 5.3-2.3 12.7-3.5 22-3.5 11.4 0 20.1 2.1 26.1 6.4 6 4.2 9.6 11 10.7 20.3l-26 1.5c-.7-4-2.1-6.9-4.4-8.8s-5.3-2.8-9.2-2.8c-3.2 0-5.6.7-7.2 2-1.5 1.2-2.5 3-2.4 5 0 1.5.8 2.9 2 3.8 1.3 1.2 4.4 2.3 9.3 3.3 12.1 2.6 20.7 5.2 26 7.9 5.3 2.7 9.1 6 11.4 9.9 2.4 4 3.6 8.6 3.5 13.3 0 5.6-1.6 11.2-4.8 15.9-3.3 4.9-7.9 8.7-13.3 11-5.7 2.5-12.9 3.8-21.5 3.8-15.2 0-25.7-2.9-31.6-8.8S286.1 77 285.4 68zM6.3 97.6V8.2h46.1c8.5 0 15.1.7 19.6 2.2 4.4 1.4 8.3 4.3 10.9 8.2 2.9 4.3 4.3 9.3 4.2 14.5.3 8.8-4.2 17.2-11.9 21.6-3 1.7-6.3 2.9-9.7 3.5 2.5.7 5 1.9 7.2 3.3 1.7 1.4 3.1 3 4.4 4.7 1.5 1.7 2.8 3.6 3.9 5.6l13.4 25.9H63L48.2 70.2c-1.9-3.5-3.5-5.8-5-6.9-2-1.4-4.4-2.1-6.8-2.1H34v36.3H6.3zM34 44.4h11.7c2.5-.2 4.9-.6 7.3-1.2 1.8-.3 3.4-1.3 4.5-2.8 2.7-3.6 2.3-8.7-1-11.8-1.8-1.5-5.3-2.3-10.3-2.3H34v18.1zM0 174.2l26.3-1.7c.6 4.3 1.7 7.5 3.5 9.8 2.8 3.6 6.9 5.5 12.2 5.5 3.9 0 7-.9 9.1-2.8 2-1.6 3.2-3.9 3.2-6.4 0-2.4-1.1-4.7-3-6.2-2-1.8-6.7-3.6-14.2-5.2-12.1-2.7-20.8-6.3-25.9-10.9-5.1-4.3-8-10.6-7.8-17.3 0-4.6 1.4-9.2 4-13 3-4.3 7.1-7.7 12-9.6 5.3-2.3 12.7-3.5 22-3.5 11.4 0 20.1 2.1 26.1 6.4s9.5 11 10.6 20.3l-26 1.5c-.7-4-2.1-6.9-4.4-8.8-2.2-1.9-5.3-2.8-9.2-2.7-3.2 0-5.6.7-7.2 2.1-1.6 1.2-2.5 3-2.4 5 0 1.5.8 2.9 2 3.8 1.3 1.2 4.4 2.3 9.3 3.3 12.1 2.6 20.7 5.2 26 7.9 5.3 2.7 9.1 6 11.4 9.9 2.4 4 3.6 8.6 3.6 13.2 0 5.6-1.7 11.1-4.8 15.8-3.3 4.9-7.9 8.7-13.3 11-5.7 2.5-12.9 3.8-21.5 3.8-15.2 0-25.7-2.9-31.6-8.8-5.9-6-9.2-13.4-10-22.4z" transform="matrix(1, 0, 0, 1, 7.105427357601002e-15, 0)"></path>
    <path d="M 135.026 167.2 L 159.226 174.5 C 157.926 180.6 155.226 186.4 151.526 191.5 C 148.126 196 143.626 199.5 138.526 201.8 C 133.326 204.1 126.726 205.3 118.726 205.3 C 109.026 205.3 101.026 203.9 94.926 201.1 C 88.726 198.3 83.426 193.3 78.926 186.2 C 74.426 179.1 72.226 170 72.226 158.9 C 72.226 144.1 76.126 132.7 84.026 124.8 C 91.926 116.9 103.026 112.9 117.426 112.9 C 128.726 112.9 137.526 115.2 144.026 119.7 C 150.426 124.3 155.226 131.3 158.426 140.7 L 134.026 146.1 C 133.426 144 132.526 141.9 131.326 140.1 C 129.826 138 127.926 136.4 125.626 135.2 C 123.326 134 120.726 133.5 118.126 133.5 C 111.826 133.5 107.026 136 103.726 141.1 C 101.226 144.8 99.926 150.7 99.926 158.7 C 99.926 168.6 101.426 175.4 104.426 179.1 C 107.426 182.8 111.626 184.6 117.126 184.6 C 122.426 184.6 126.426 183.1 129.126 180.2 C 131.826 177.1 133.826 172.8 135.026 167.2 Z M 191.526 114.4 L 219.126 114.4 L 219.126 145.7 L 249.326 145.7 L 249.326 114.4 L 277.126 114.4 L 277.126 203.8 L 249.326 203.8 L 249.326 167.6 L 219.126 167.6 L 219.126 203.8 L 191.526 203.8 L 191.526 114.4 Z" transform="matrix(1, 0, 0, 1, 7.105427357601002e-15, 0)"></path>
    <path d="M271.3 159.1c0-14.6 4.1-26 12.2-34.1 8.1-8.1 19.5-12.2 34-12.2 14.9 0 26.3 4 34.4 12S364 144 364 158.4c0 10.5-1.8 19-5.3 25.7-3.4 6.6-8.7 12-15.2 15.6-6.7 3.7-15 5.6-24.9 5.6-10.1 0-18.4-1.6-25-4.8-6.8-3.4-12.4-8.7-16.1-15.2-4.1-7-6.2-15.7-6.2-26.2zm27.6.1c0 9 1.7 15.5 5 19.5 3.3 3.9 7.9 5.9 13.7 5.9 5.9 0 10.5-1.9 13.8-5.8s4.9-10.8 4.9-20.8c0-8.4-1.7-14.6-5.1-18.4-3.4-3.9-8-5.8-13.8-5.8-5.1-.2-10 2-13.4 5.9-3.4 3.9-5.1 10.4-5.1 19.5zm93.4-.1c0-14.6 4.1-26 12.2-34.1 8.1-8.1 19.5-12.2 34-12.2 14.9 0 26.4 4 34.4 12S485 144 485 158.4c0 10.5-1.8 19-5.3 25.7-3.4 6.6-8.7 12-15.2 15.6-6.7 3.7-15 5.6-24.9 5.6-10.1 0-18.4-1.6-25-4.8-6.8-3.4-12.4-8.7-16.1-15.2-4.1-7-6.2-15.7-6.2-26.2zm27.6.1c0 9 1.7 15.5 5 19.5 3.3 3.9 7.9 5.9 13.7 5.9 5.9 0 10.5-1.9 13.8-5.8 3.3-3.9 4.9-10.8 4.9-20.8 0-8.4-1.7-14.6-5.1-18.4-3.4-3.9-8-5.8-13.8-5.8-5.1-.2-10.1 2-13.4 5.9-3.4 3.9-5.1 10.4-5.1 19.5z" transform="matrix(1, 0, 0, 1, 7.105427357601002e-15, 0)"></path>
    <path d="M482.1 114.4h27.6v67.4h43.1v22H482v-89.4z" transform="matrix(1, 0, 0, 1, 7.105427357601002e-15, 0)"></path>
  </symbol>
</svg>






