<svg width="0" height="0" class="icon">
  <symbol fill="#fff" xmlns="http://www.w3.org/2000/svg" viewBox="0 0 24 24" id="asc">
    <path d="M12.001 1.993C6.486 1.994 2 6.48 2 11.994c.001 5.514 4.487 10 10 10 5.515 0 10.001-4.486 10.001-10s-4.486-10-10-10.001zM12 19.994c-4.41 0-7.999-3.589-8-8 0-4.411 3.589-8 8.001-8.001 4.411.001 8 3.59 8 8.001s-3.589 8-8.001 8z"></path>
    <path d="m12.001 8.001-4.005 4.005h3.005V16h2v-3.994h3.004z"></path>
  </symbol>
  <symbol fill="#fff" xmlns="http://www.w3.org/2000/svg" viewBox="0 0 24 24" id="desc">
    <path d="M12 1.993C6.486 1.994 2 6.48 2 11.994c0 5.513 4.486 9.999 10 10 5.514 0 10-4.486 10-10s-4.485-10-10-10.001zm0 18.001c-4.411-.001-8-3.59-8-8 0-4.411 3.589-8 8-8.001 4.411.001 8 3.59 8 8.001s-3.589 8-8 8z"></path>
    <path d="M13 8h-2v4H7.991l4.005 4.005L16 12h-3z"></path>
  </symbol>
</svg>