<svg style="display:none;">
  <symbol fill="none" xmlns="http://www.w3.org/2000/svg" viewBox="0 0 24 24" id="user">
    <g id="SVGRepo_bgCarrier" stroke-width="0"></g>
    <g id="SVGRepo_tracerCarrier" stroke-linecap="round" stroke-linejoin="round"></g>
    <g id="SVGRepo_iconCarrier">
      <circle cx="12" cy="9" r="3" stroke-width="1.5"></circle>
      <circle cx="12" cy="12" r="10" stroke-width="1.5"></circle>
      <path d="M17.9691 20C17.81 17.1085 16.9247 15 11.9999 15C7.07521 15 6.18991 17.1085 6.03076 20" stroke-width="1.5" stroke-linecap="round"></path>
    </g>
  </symbol>
  <symbol fill="none" xmlns="http://www.w3.org/2000/svg" viewBox="0 0 24 24" id="basket">
    <g id="SVGRepo_bgCarrier" stroke-width="0"></g>
    <g id="SVGRepo_tracerCarrier" stroke-linecap="round" stroke-linejoin="round"></g>
    <g id="SVGRepo_iconCarrier">
      <path d="M3 10H21M3 10L5 20H19L21 10M3 10L9 4M21 10L15 4" stroke-width="1.5" stroke-linecap="round" stroke-linejoin="round"></path>
    </g>
  </symbol>
  <symbol version="1.1" id="about-us" xmlns="http://www.w3.org/2000/svg" xmlns:xlink="http://www.w3.org/1999/xlink" xml:space="preserve" viewBox="0 0 502.643 502.643">
    <g id="SVGRepo_bgCarrier" stroke-width="0"></g>
    <g id="SVGRepo_tracerCarrier" stroke-linecap="round" stroke-linejoin="round"></g>
    <g id="SVGRepo_iconCarrier">
      <g>
        <g>
          <path d="M251.256,237.591c37.166,0,67.042-30.048,67.042-66.977c0.043-37.037-29.876-66.999-67.042-66.999 c-36.908,0-66.869,29.962-66.869,66.999C184.387,207.587,214.349,237.591,251.256,237.591z"></path>
          <path d="M305.032,248.506H197.653c-19.198,0-34.923,17.602-34.923,39.194v107.854c0,1.186,0.604,2.243,0.669,3.473h175.823 c0.129-1.229,0.626-2.286,0.626-3.473V287.7C339.912,266.108,324.187,248.506,305.032,248.506z"></path>
          <path d="M431.588,269.559c29.832,0,53.754-24.008,53.754-53.668s-23.922-53.711-53.754-53.711 c-29.617,0-53.582,24.051-53.582,53.711C377.942,245.53,401.972,269.559,431.588,269.559z"></path>
          <path d="M474.708,278.317h-86.046c-15.445,0-28.064,14.107-28.064,31.472v86.413c0,0.928,0.453,1.812,0.518,2.826h141.03 c0.065-1.014,0.496-1.898,0.496-2.826v-86.413C502.707,292.424,490.11,278.317,474.708,278.317z"></path>
          <path d="M71.011,269.559c29.789,0,53.733-24.008,53.733-53.668S100.8,162.18,71.011,162.18c-29.638,0-53.603,24.051-53.603,53.711 S41.373,269.559,71.011,269.559L71.011,269.559z"></path>
          <path d="M114.109,278.317H27.977C12.576,278.317,0,292.424,0,309.789v86.413c0,0.928,0.453,1.812,0.539,2.826h141.03 c0.065-1.014,0.475-1.898,0.475-2.826v-86.413C142.087,292.424,129.489,278.317,114.109,278.317z"></path>
        </g>
        <g></g>
        <g></g>
        <g></g>
        <g></g>
        <g></g>
        <g></g>
        <g></g>
        <g></g>
        <g></g>
        <g></g>
        <g></g>
        <g></g>
        <g></g>
        <g></g>
        <g></g>
      </g>
    </g>
  </symbol>
   <symbol version="1.1" id="dice" xmlns="http://www.w3.org/2000/svg" xmlns:xlink="http://www.w3.org/1999/xlink" xml:space="preserve" viewBox="0 0 512 512">
    <g>
      <path d="M449.532,105.602L288.463,8.989C278.474,2.994,267.235,0,256.011,0c-11.239,0-22.483,2.994-32.467,8.989
		L62.475,105.602c-19.012,11.406-30.647,31.95-30.647,54.117v192.562c0,22.168,11.635,42.711,30.647,54.117l161.069,96.613
		c9.984,5.988,21.228,8.989,32.467,8.989c11.225,0,22.463-3.001,32.452-8.989l161.069-96.613
		c19.012-11.406,30.64-31.949,30.64-54.117V159.719C480.172,137.552,468.544,117.008,449.532,105.602z M250.599,492.733
		c-6.029-0.745-11.93-2.719-17.32-5.948L72.21,390.172c-13.306-7.989-21.456-22.369-21.456-37.891V159.719
		c0-6.022,1.236-11.862,3.518-17.233l196.328,117.76V492.733z M59.669,133.114c3.364-4.464,7.593-8.318,12.541-11.285
		l161.069-96.613c6.995-4.196,14.85-6.291,22.732-6.291c7.868,0,15.723,2.095,22.718,6.291l161.069,96.613
		c4.941,2.967,9.184,6.821,12.54,11.285L256.011,250.881L59.669,133.114z M461.254,352.281c0,15.522-8.15,29.902-21.456,37.891
		l-161.069,96.613c-5.398,3.229-11.292,5.203-17.321,5.948V260.246l196.328-117.76c2.283,5.37,3.518,11.211,3.518,17.233V352.281z"></path>
      <path d="M160.209,119.875c-9.828-7.278-26.021-7.465-36.165-0.41c-10.144,7.056-10.399,18.67-0.57,25.947
		c9.828,7.277,26.022,7.459,36.159,0.41C169.783,138.766,170.038,127.152,160.209,119.875z"></path>
      <path d="M279.159,48.686c-9.829-7.277-26.022-7.458-36.172-0.403c-10.137,7.049-10.393,18.664-0.564,25.941
		c9.829,7.284,26.022,7.458,36.159,0.416C288.732,67.578,288.987,55.963,279.159,48.686z"></path>
      <path d="M220.59,82.024c-9.834-7.27-26.028-7.458-36.172-0.403c-10.15,7.049-10.406,18.664-0.571,25.941
		c9.829,7.284,26.022,7.458,36.166,0.416C230.151,100.916,230.412,89.302,220.59,82.024z"></path>
      <path d="M267.437,184.754c-9.828-7.277-26.015-7.459-36.159-0.41c-10.15,7.056-10.405,18.671-0.577,25.947
		c9.828,7.284,26.021,7.459,36.172,0.41C277.01,203.645,277.265,192.031,267.437,184.754z"></path>
      <path d="M386.385,113.564c-9.828-7.271-26.021-7.458-36.158-0.403c-10.151,7.049-10.406,18.664-0.577,25.941
		c9.828,7.284,26.02,7.458,36.172,0.416C395.959,132.456,396.214,120.842,386.385,113.564z"></path>
      <path d="M327.817,146.903c-9.829-7.27-26.022-7.458-36.172-0.403c-10.137,7.049-10.392,18.664-0.564,25.941
		c9.828,7.284,26.021,7.465,36.158,0.416C337.391,165.795,337.646,154.188,327.817,146.903z"></path>
      <path d="M89.289,248.303c11.158,6.083,20.194,1.961,20.194-9.19c0-11.158-9.036-25.128-20.194-31.21
		c-11.157-6.083-20.207-1.967-20.207,9.19C69.081,228.244,78.131,242.221,89.289,248.303z"></path>
      <path d="M202.061,309.771c11.158,6.082,20.208,1.967,20.208-9.184c0-11.157-9.05-25.135-20.208-31.217
		c-11.15-6.076-20.194-1.961-20.194,9.198C181.867,289.719,190.911,303.689,202.061,309.771z"></path>
      <path d="M89.289,361.082c11.158,6.076,20.194,1.967,20.194-9.19c0-11.158-9.036-25.129-20.194-31.21
		c-11.157-6.083-20.207-1.968-20.207,9.19C69.081,341.029,78.131,355,89.289,361.082z"></path>
      <path d="M202.061,422.55c11.158,6.082,20.208,1.967,20.208-9.191c0-11.151-9.05-25.128-20.208-31.21
		c-11.15-6.076-20.194-1.961-20.194,9.19C181.867,402.497,190.911,416.468,202.061,422.55z"></path>
      <path d="M145.675,335.424c11.158,6.082,20.201,1.967,20.201-9.191c0-11.151-9.044-25.128-20.201-31.204
		c-11.158-6.082-20.201-1.967-20.201,9.185C125.474,315.37,134.517,329.341,145.675,335.424z"></path>
      <path d="M418.341,207.902c-11.158,6.082-20.208,20.053-20.208,31.21c0,11.151,9.05,15.273,20.208,9.19
		c11.144-6.082,20.194-20.059,20.194-31.21C438.535,205.935,429.486,201.819,418.341,207.902z"></path>
      <path d="M305.555,382.149c-11.158,6.082-20.194,20.059-20.194,31.21c0,11.158,9.036,15.273,20.194,9.191
		c11.158-6.082,20.194-20.053,20.194-31.211C325.749,380.188,316.714,376.074,305.555,382.149z"></path>
      <path d="M361.948,295.028c-11.158,6.076-20.207,20.053-20.207,31.204c0,11.158,9.05,15.273,20.207,9.191
		c11.158-6.083,20.194-20.053,20.194-31.21C382.142,293.062,373.106,288.947,361.948,295.028z"></path>
    </g>
  </symbol>
  <symbol xmlns="http://www.w3.org/2000/svg" viewBox="0 0 24 24" id="home">
    <path fill-rule="evenodd" clip-rule="evenodd" d="M11.3103 1.77586C11.6966 1.40805 12.3034 1.40805 12.6897 1.77586L20.6897 9.39491L23.1897 11.7759C23.5896 12.1567 23.605 12.7897 23.2241 13.1897C22.8433 13.5896 22.2103 13.605 21.8103 13.2241L21 12.4524V20C21 21.1046 20.1046 22 19 22H14H10H5C3.89543 22 3 21.1046 3 20V12.4524L2.18966 13.2241C1.78972 13.605 1.15675 13.5896 0.775862 13.1897C0.394976 12.7897 0.410414 12.1567 0.810345 11.7759L3.31034 9.39491L11.3103 1.77586ZM5 10.5476V20H9V15C9 13.3431 10.3431 12 12 12C13.6569 12 15 13.3431 15 15V20H19V10.5476L12 3.88095L5 10.5476ZM13 20V15C13 14.4477 12.5523 14 12 14C11.4477 14 11 14.4477 11 15V20H13Z"></path>
  </symbol>
</svg>











