<svg width="0" height="0" class="icon">
  <symbol fill="#fff" xmlns="http://www.w3.org/2000/svg" viewBox="0 0 24 24" id="asc">
    <path d="M12.001 1.993C6.486 1.994 2 6.48 2 11.994c.001 5.514 4.487 10 10 10 5.515 0 10.001-4.486 10.001-10s-4.486-10-10-10.001zM12 19.994c-4.41 0-7.999-3.589-8-8 0-4.411 3.589-8 8.001-8.001 4.411.001 8 3.59 8 8.001s-3.589 8-8.001 8z"></path>
    <path d="m12.001 8.001-4.005 4.005h3.005V16h2v-3.994h3.004z"></path>
  </symbol>
  
  <symbol fill="#fff" xmlns="http://www.w3.org/2000/svg" viewBox="0 0 24 24" id="desc">
    <path d="M12 1.993C6.486 1.994 2 6.48 2 11.994c0 5.513 4.486 9.999 10 10 5.514 0 10-4.486 10-10s-4.485-10-10-10.001zm0 18.001c-4.411-.001-8-3.59-8-8 0-4.411 3.589-8 8-8.001 4.411.001 8 3.59 8 8.001s-3.589 8-8 8z"></path>
    <path d="M13 8h-2v4H7.991l4.005 4.005L16 12h-3z"></path>
  </symbol>

   <symbol fill="#fff" version="1.1" id="hidden" xmlns="http://www.w3.org/2000/svg" xmlns:xlink="http://www.w3.org/1999/xlink" xml:space="preserve" viewBox="0 0 512.002 512.002">
    <g>
      <g>
        <path d="M498.837,65.628c-7.957-3.328-17.152-1.472-23.253,4.629L256,289.841L36.416,70.257
			c-6.101-6.101-15.275-7.936-23.253-4.629C5.184,68.913,0,76.721,0,85.34v106.667c0,5.675,2.24,11.093,6.251,15.083
			l234.667,234.667c4.16,4.16,9.621,6.251,15.083,6.251c5.462,0,10.923-2.091,15.083-6.251L505.751,207.09
			c4.011-3.989,6.251-9.408,6.251-15.083V85.34C512,76.721,506.816,68.913,498.837,65.628z"></path>
      </g>
    </g>
  </symbol>

  <symbol fill="#fff" version="1.1" id="show" xmlns="http://www.w3.org/2000/svg" xmlns:xlink="http://www.w3.org/1999/xlink" xml:space="preserve" viewBox="0 0 512.001 512.001">
    <g>
      <g>
        <path d="M505.749,304.918L271.083,70.251c-8.341-8.341-21.824-8.341-30.165,0L6.251,304.918C2.24,308.907,0,314.326,0,320.001
			v106.667c0,8.619,5.184,16.427,13.163,19.712c7.979,3.307,17.152,1.472,23.253-4.629L256,222.166L475.584,441.75
			c4.075,4.075,9.536,6.251,15.083,6.251c2.752,0,5.525-0.512,8.171-1.621c7.979-3.285,13.163-11.093,13.163-19.712V320.001
			C512,314.326,509.76,308.907,505.749,304.918z"></path>
      </g>
    </g>
  </symbol>

  <symbol fill="#fff" xmlns="http://www.w3.org/2000/svg" viewBox="0 0 24 24" id="add">
    <path d="M12 4V20M4 12H20" stroke="#fff" stroke-width="2" stroke-linecap="round" stroke-linejoin="round"></path>
  </symbol>

  <symbol fill="#fff" xmlns="http://www.w3.org/2000/svg" viewBox="0 0 24 24" id="loader">
    <g>
      <path fill="none" d="M0 0h24v24H0z"></path>
      <path d="M12 3a9 9 0 0 1 9 9h-2a7 7 0 0 0-7-7V3z"></path>
    </g>
  </symbol>
</svg>